<?xml version="1.0" encoding="UTF-8" standalone="no"?>
<svg
   version="1.1"
   viewBox="0 0 1204 169"
   width="1204.0pt"
   height="169.0pt"
   id="svg94"
   sodipodi:docname="LymphAwareID_Logo_Impact.svg"
   inkscape:version="1.4.4 (dcaf3e7, 2026-05-05)"
   xmlns:inkscape="http://www.inkscape.org/namespaces/inkscape"
   xmlns:sodipodi="http://sodipodi.sourceforge.net/DTD/sodipodi-0.dtd"
   xmlns="http://www.w3.org/2000/svg"
   xmlns:svg="http://www.w3.org/2000/svg">
  <defs
     id="defs94">
    <rect
       x="1400"
       y="25.742574"
       width="177.22772"
       height="147.52475"
       id="rect12" />
    <rect
       x="1390.099"
       y="24.752475"
       width="202.9703"
       height="157.42574"
       id="rect11" />
    <rect
       x="1390.2439"
       y="25.609756"
       width="157.31707"
       height="131.70732"
       id="rect10" />
    <rect
       x="1392.6829"
       y="20.731707"
       width="242.68293"
       height="165.85366"
       id="rect9" />
    <linearGradient
       id="swatch8"
       inkscape:swatch="solid">
      <stop
         style="stop-color:#044877;stop-opacity:1;"
         offset="0"
         id="stop9" />
    </linearGradient>
    <rect
       x="1395.122"
       y="35.365854"
       width="163.41463"
       height="106.09756"
       id="rect3" />
    <rect
       x="1396.3415"
       y="18.292683"
       width="171.95122"
       height="150"
       id="rect2" />
    <rect
       x="1387.8049"
       y="24.390244"
       width="223.17073"
       height="141.46341"
       id="rect1" />
  </defs>
  <sodipodi:namedview
     id="namedview94"
     pagecolor="#ffffff"
     bordercolor="#000000"
     borderopacity="0.25"
     inkscape:showpageshadow="2"
     inkscape:pageopacity="0.0"
     inkscape:pagecheckerboard="true"
     inkscape:deskcolor="#d1d1d1"
     inkscape:document-units="pt"
     showgrid="false"
     inkscape:zoom="0.94"
     inkscape:cx="837.23404"
     inkscape:cy="112.23404"
     inkscape:window-width="2560"
     inkscape:window-height="1369"
     inkscape:window-x="-8"
     inkscape:window-y="-8"
     inkscape:window-maximized="1"
     inkscape:current-layer="svg94" />
  <path
     d="M 68.46 5.62 C 72.51 4.28 76.84 4.09 80.97 5.15 C 91.13 7.61 98.33 17.57 97.49 28.01 C 96.90 39.18 87.20 48.50 76.00 48.57 C 65.51 48.91 55.98 41.23 53.98 30.95 C 51.67 20.23 58.06 9.06 68.46 5.62 Z"
     fill="#2c922b"
     id="path2"
     style="fill:#247a24;fill-opacity:1" />
  <path
     d="M 146.23 43.94 C 145.77 57.44 142.98 70.73 136.79 82.80 C 130.24 95.46 121.46 107.72 108.73 114.74 C 99.36 120.22 88.01 125.62 76.94 125.33 C 77.68 115.77 78.90 105.94 81.82 96.77 C 84.36 89.85 87.12 82.48 91.49 76.50 C 96.36 69.72 101.85 63.53 108.78 58.79 C 119.87 50.60 132.73 46.18 146.23 43.94 Z"
     fill="#0053b7"
     id="path17" />
  <path
     d="M 4.98 44.18 C 20.90 46.85 37.37 53.56 49.20 64.78 C 59.81 75.21 67.06 88.67 70.60 103.07 C 72.38 110.26 72.51 118.07 73.29 125.47 C 65.27 124.81 57.77 122.95 50.53 119.42 C 34.39 111.75 20.29 98.39 13.36 81.75 C 7.78 69.94 4.30 57.35 4.98 44.18 Z"
     fill="#2c922b"
     id="path18"
     style="fill:#247a24;fill-opacity:1" />
  <path
     d="M 56.49 135.87 C 73.09 134.27 90.15 134.51 106.55 137.71 C 112.26 138.95 118.44 140.50 123.45 143.60 C 125.51 144.99 128.25 147.17 127.85 149.97 C 127.53 152.73 124.40 154.90 122.16 156.15 C 116.07 159.34 108.93 160.89 102.20 162.06 C 87.20 164.40 71.86 164.69 56.76 163.11 C 49.06 162.26 41.03 160.94 33.72 158.28 C 30.39 157.03 26.70 155.40 24.40 152.58 C 23.03 151.07 22.74 148.65 23.96 146.96 C 26.04 144.02 29.71 142.24 32.98 140.97 C 40.40 138.14 48.63 136.80 56.49 135.87 Z"
     fill="#0053b7"
     id="path36"
     style="fill:#0053b7;fill-opacity:1" />
  <g
     id="text124"
     style="font-weight:bold;font-size:35.8176px;font-family:'Segoe UI';-inkscape-font-specification:'Segoe UI, Bold';fill:#1a1a1a;stroke:#0e0e0e;stroke-width:0;stroke-linejoin:round"
     transform="scale(1.0409256,0.96068343)"
     aria-label="Helping People Living with Lymphoedema Be Understood">
    <path
       d="m 203.02817,159.3004 h -5.66645 v -10.21361 h -10.38851 v 10.21361 h -5.64896 v -25.07932 h 5.64896 v 10.00375 h 10.38851 v -10.00375 h 5.66645 z m 21.28419,-7.38038 h -11.68269 q 0.27982,3.90006 4.91443,3.90006 2.95565,0 5.19425,-1.39913 v 3.98751 q -2.48345,1.32917 -6.45347,1.32917 -4.33728,0 -6.73329,-2.39601 -2.396,-2.41349 -2.396,-6.7158 0,-4.45971 2.58838,-7.06558 2.58838,-2.60587 6.36602,-2.60587 3.91755,0 6.05122,2.32605 2.15115,2.32604 2.15115,6.31355 z m -5.12429,-3.39288 q 0,-3.8476 -3.11306,-3.8476 -1.32916,0 -2.30855,1.10181 -0.9619,1.10182 -1.17177,2.74579 z m 13.93878,10.77326 h -5.52654 v -26.51342 h 5.52654 z m 10.24859,-2.0812 h -0.07 v 10.31855 h -5.52655 V 141.3916 h 5.52655 v 2.69332 h 0.07 q 2.04622,-3.13055 5.7539,-3.13055 3.48033,0 5.36915,2.396 1.9063,2.37852 1.9063,6.48845 0,4.4772 -2.22111,7.188 -2.20362,2.71081 -5.87632,2.71081 -3.23548,0 -4.93192,-2.51843 z m -0.1574,-7.3454 v 1.4341 q 0,1.85384 0.97939,3.02561 0.97938,1.17176 2.57089,1.17176 1.88882,0 2.92067,-1.45159 1.04935,-1.46908 1.04935,-4.14491 0,-4.72204 -3.67271,-4.72204 -1.69644,0 -2.78076,1.29419 -1.06683,1.2767 -1.06683,3.39288 z m 19.57026,-11.31543 q -1.39913,0 -2.29107,-0.82198 -0.89194,-0.83948 -0.89194,-2.04622 0,-1.24173 0.89194,-2.02874 0.89194,-0.787 2.29107,-0.787 1.41661,0 2.29106,0.787 0.89195,0.78701 0.89195,2.02874 0,1.25921 -0.89195,2.0637 -0.87445,0.8045 -2.29106,0.8045 z m 2.72829,20.74203 h -5.52654 v -17.9088 h 5.52654 z m 21.94877,0 h -5.50905 v -9.95128 q 0,-4.16239 -2.97314,-4.16239 -1.4341,0 -2.36102,1.10181 -0.92692,1.10181 -0.92692,2.79825 v 10.21361 h -5.52655 v -17.9088 h 5.52655 v 2.83323 h 0.07 q 1.97627,-3.27046 5.7539,-3.27046 5.94628,0 5.94628,7.38039 z m 21.93129,-2.04622 q 0,4.98438 -2.88569,7.71268 -2.8857,2.74578 -8.35977,2.74578 -3.62024,0 -5.73642,-1.03186 v -4.65209 q 2.76328,1.609 5.57901,1.609 2.79825,0 4.33729,-1.48657 1.53904,-1.46908 1.53904,-4.005 v -1.41661 h -0.07 q -1.88882,3.00812 -5.57901,3.00812 -3.42785,0 -5.4391,-2.41349 -2.01124,-2.41349 -2.01124,-6.47096 0,-4.54715 2.2386,-7.22298 2.2386,-2.67583 5.89382,-2.67583 3.27045,0 4.89693,2.51843 h 0.07 v -2.0812 h 5.52654 z m -5.45658,-6.5584 v -1.41661 q 0,-1.69644 -1.01437,-2.8857 -0.99688,-1.20674 -2.60587,-1.20674 -1.83635,0 -2.8857,1.4341 -1.04934,1.4341 -1.04934,4.03997 0,2.2386 0.99688,3.55028 0.99687,1.29419 2.72829,1.29419 1.71393,0 2.76327,-1.31168 1.06684,-1.32917 1.06684,-3.49781 z m 26.14615,-0.035 v 8.6396 h -5.64897 v -25.07932 h 8.84947 q 9.47907,0 9.47907,7.99251 0,3.77763 -2.72829,6.12117 -2.71081,2.32604 -7.25796,2.32604 z m 0,-12.10243 v 7.81761 h 2.22111 q 4.51218,0 4.51218,-3.95253 0,-3.86508 -4.51218,-3.86508 z m 30.83321,13.36165 h -11.68269 q 0.27982,3.90006 4.91442,3.90006 2.95566,0 5.19426,-1.39913 v 3.98751 q -2.48345,1.32917 -6.45347,1.32917 -4.33729,0 -6.73329,-2.39601 -2.396,-2.41349 -2.396,-6.7158 0,-4.45971 2.58838,-7.06558 2.58838,-2.60587 6.36602,-2.60587 3.91755,0 6.05122,2.32605 2.15115,2.32604 2.15115,6.31355 z m -5.12429,-3.39288 q 0,-3.8476 -3.11306,-3.8476 -1.32917,0 -2.30855,1.10181 -0.9619,1.10182 -1.17177,2.74579 z m 16.9469,11.21049 q -4.4772,0 -7.04809,-2.50094 -2.55341,-2.51842 -2.55341,-6.82073 0,-4.44223 2.65834,-6.94316 2.65834,-2.51843 7.18801,-2.51843 4.45971,0 6.99562,2.51843 2.53592,2.50093 2.53592,6.62835 0,4.45971 -2.62336,7.0481 -2.60587,2.58838 -7.15303,2.58838 z m 0.13991,-14.5509 q -1.95877,0 -3.04309,1.34665 -1.08433,1.34666 -1.08433,3.81262 0,5.15927 4.1624,5.15927 3.97002,0 3.97002,-5.29918 0,-5.01936 -4.005,-5.01936 z m 18.81823,12.03247 h -0.07 v 10.31855 h -5.52654 V 141.3916 h 5.52654 v 2.69332 h 0.07 q 2.04622,-3.13055 5.7539,-3.13055 3.48032,0 5.36914,2.396 1.90631,2.37852 1.90631,6.48845 0,4.4772 -2.22111,7.188 -2.20362,2.71081 -5.87633,2.71081 -3.23547,0 -4.93191,-2.51843 z m -0.1574,-7.3454 v 1.4341 q 0,1.85384 0.97938,3.02561 0.97939,1.17176 2.5709,1.17176 1.88882,0 2.92067,-1.45159 1.04934,-1.46908 1.04934,-4.14491 0,-4.72204 -3.6727,-4.72204 -1.69644,0 -2.78076,1.29419 -1.06683,1.2767 -1.06683,3.39288 z m 22.29856,9.4266 h -5.52654 v -26.51342 h 5.52654 z m 20.74203,-7.38038 h -11.68269 q 0.27982,3.90006 4.91442,3.90006 2.95566,0 5.19426,-1.39913 v 3.98751 q -2.48345,1.32917 -6.45347,1.32917 -4.33729,0 -6.73329,-2.39601 -2.396,-2.41349 -2.396,-6.7158 0,-4.45971 2.58838,-7.06558 2.58838,-2.60587 6.36602,-2.60587 3.91755,0 6.05122,2.32605 2.15115,2.32604 2.15115,6.31355 z m -5.12429,-3.39288 q 0,-3.8476 -3.11306,-3.8476 -1.32917,0 -2.30855,1.10181 -0.9619,1.10182 -1.17177,2.74579 z m 33.77138,10.77326 H 448.2948 v -25.07932 h 5.64896 v 20.49719 h 9.2867 z m 5.63146,-20.74203 q -1.39912,0 -2.29107,-0.82198 -0.89194,-0.83948 -0.89194,-2.04622 0,-1.24173 0.89194,-2.02874 0.89195,-0.787 2.29107,-0.787 1.41661,0 2.29107,0.787 0.89194,0.78701 0.89194,2.02874 0,1.25921 -0.89194,2.0637 -0.87446,0.8045 -2.29107,0.8045 z m 2.72829,20.74203 h -5.52654 v -17.9088 h 5.52654 z m 21.70395,-17.9088 -6.66334,17.9088 h -6.29606 l -6.34853,-17.9088 h 5.9113 l 3.11306,11.0356 q 0.52467,1.87133 0.61211,3.18301 h 0.07 q 0.12242,-1.24173 0.6471,-3.07808 l 3.18301,-11.14053 z m 5.15925,-2.83323 q -1.39912,0 -2.29107,-0.82198 -0.89194,-0.83948 -0.89194,-2.04622 0,-1.24173 0.89194,-2.02874 0.89195,-0.787 2.29107,-0.787 1.41662,0 2.29107,0.787 0.89194,0.78701 0.89194,2.02874 0,1.25921 -0.89194,2.0637 -0.87445,0.8045 -2.29107,0.8045 z m 2.7283,20.74203 h -5.52655 v -17.9088 h 5.52655 z m 21.94878,0 h -5.50905 v -9.95128 q 0,-4.16239 -2.97314,-4.16239 -1.4341,0 -2.36102,1.10181 -0.92692,1.10181 -0.92692,2.79825 v 10.21361 h -5.52655 v -17.9088 h 5.52655 v 2.83323 h 0.07 q 1.97627,-3.27046 5.7539,-3.27046 5.94628,0 5.94628,7.38039 z m 21.93129,-2.04622 q 0,4.98438 -2.8857,7.71268 -2.88569,2.74578 -8.35977,2.74578 -3.62024,0 -5.73641,-1.03186 v -4.65209 q 2.76327,1.609 5.57901,1.609 2.79825,0 4.33728,-1.48657 1.53904,-1.46908 1.53904,-4.005 v -1.41661 h -0.0699 q -1.88882,3.00812 -5.57901,3.00812 -3.42786,0 -5.4391,-2.41349 -2.01125,-2.41349 -2.01125,-6.47096 0,-4.54715 2.2386,-7.22298 2.2386,-2.67583 5.89382,-2.67583 3.27045,0 4.89694,2.51843 h 0.0699 v -2.0812 h 5.52655 z m -5.45659,-6.5584 v -1.41661 q 0,-1.69644 -1.01437,-2.8857 -0.99687,-1.20674 -2.60587,-1.20674 -1.83635,0 -2.88569,1.4341 -1.04935,1.4341 -1.04935,4.03997 0,2.2386 0.99688,3.55028 0.99688,1.29419 2.72829,1.29419 1.71393,0 2.76328,-1.31168 1.06683,-1.32917 1.06683,-3.49781 z m 45.89131,-9.30418 -5.15927,17.9088 h -5.80637 l -2.64085,-10.49344 q -0.26233,-1.04934 -0.29731,-2.29106 h -0.10494 q -0.12242,1.36414 -0.34978,2.22111 l -2.83323,10.56339 h -5.73641 L 557.514,141.3916 h 5.63148 l 2.46596,11.68269 q 0.17489,0.82199 0.26233,1.99376 h 0.10494 q 0.0874,-1.22424 0.3148,-2.06371 l 3.07808,-11.61274 h 5.2642 l 2.76328,11.68269 q 0.10493,0.43723 0.24484,2.02873 h 0.12243 q 0.0874,-1.01436 0.27982,-2.02873 l 2.32605,-11.68269 z m 5.4216,-2.83323 q -1.39912,0 -2.29106,-0.82198 -0.89195,-0.83948 -0.89195,-2.04622 0,-1.24173 0.89195,-2.02874 0.89194,-0.787 2.29106,-0.787 1.41662,0 2.29107,0.787 0.89194,0.78701 0.89194,2.02874 0,1.25921 -0.89194,2.0637 -0.87445,0.8045 -2.29107,0.8045 z m 2.7283,20.74203 h -5.52655 v -17.9088 h 5.52655 z m 15.4778,-0.20987 q -1.22423,0.6471 -3.69019,0.6471 -5.84135,0 -5.84135,-6.06871 v -8.20237 h -2.90318 v -4.07495 h 2.90318 v -3.86508 l 5.50906,-1.57402 v 5.4391 h 4.02248 v 4.07495 h -4.02248 v 7.24047 q 0,2.79825 2.22111,2.79825 0.87445,0 1.80137,-0.50718 z m 20.3048,0.20987 h -5.50905 v -10.17863 q 0,-3.93504 -2.86821,-3.93504 -1.46908,0 -2.37851,1.10181 -0.90943,1.10181 -0.90943,2.79825 v 10.21361 h -5.52655 v -26.51342 h 5.52655 v 11.26296 h 0.07 q 2.02874,-3.09557 5.50906,-3.09557 6.08619,0 6.08619,7.34541 z"
       id="path1" />
    <path
       d="m 659.16042,159.3004 h -14.93566 v -25.07932 h 5.64897 v 20.49719 h 9.28669 z m 18.62586,-17.9088 -7.27545,19.3429 q -2.62336,6.97814 -7.90505,6.97814 -2.01125,0 -3.30544,-0.45472 v -4.40724 q 1.10181,0.64709 2.39601,0.64709 2.13366,0 2.97314,-2.01124 l 0.94441,-2.22111 -7.27545,-17.87382 h 6.12117 l 3.34041,10.89569 q 0.3148,1.01436 0.48969,2.396 h 0.07 q 0.1574,-1.01437 0.57714,-2.36103 l 3.37539,-10.93066 z m 30.65833,17.9088 h -5.50905 v -10.21361 q 0,-3.90006 -2.86821,-3.90006 -1.36415,0 -2.22111,1.17176 -0.85696,1.17177 -0.85696,2.92068 v 10.02123 h -5.52655 v -10.31855 q 0,-3.79512 -2.81574,-3.79512 -1.41661,0 -2.27358,1.1193 -0.83947,1.1193 -0.83947,3.04309 v 9.95128 h -5.52654 v -17.9088 h 5.52654 v 2.79825 h 0.07 q 0.85696,-1.4341 2.396,-2.32605 1.55652,-0.90943 3.39288,-0.90943 3.79512,0 5.19425,3.34041 2.04622,-3.34041 6.01623,-3.34041 5.84135,0 5.84135,7.2055 z m 9.96876,-2.0812 h -0.0699 v 10.31855 h -5.52655 V 141.3916 h 5.52655 v 2.69332 h 0.0699 q 2.04623,-3.13055 5.75391,-3.13055 3.48032,0 5.36914,2.396 1.90631,2.37852 1.90631,6.48845 0,4.4772 -2.22111,7.188 -2.20363,2.71081 -5.87633,2.71081 -3.23548,0 -4.93192,-2.51843 z m -0.1574,-7.3454 v 1.4341 q 0,1.85384 0.97939,3.02561 0.97939,1.17176 2.57089,1.17176 1.88882,0 2.92068,-1.45159 1.04934,-1.46908 1.04934,-4.14491 0,-4.72204 -3.6727,-4.72204 -1.69644,0 -2.78076,1.29419 -1.06684,1.2767 -1.06684,3.39288 z m 33.96377,9.4266 h -5.50905 v -10.17863 q 0,-3.93504 -2.86821,-3.93504 -1.46908,0 -2.37851,1.10181 -0.90943,1.10181 -0.90943,2.79825 V 159.3004 H 735.028 v -26.51342 h 5.52654 v 11.26296 h 0.07 q 2.02873,-3.09557 5.50905,-3.09557 6.08619,0 6.08619,7.34541 z m 12.90688,0.43723 q -4.4772,0 -7.04809,-2.50094 -2.5534,-2.51842 -2.5534,-6.82073 0,-4.44223 2.65833,-6.94316 2.65834,-2.51843 7.18801,-2.51843 4.45971,0 6.99562,2.51843 2.53592,2.50093 2.53592,6.62835 0,4.45971 -2.62336,7.0481 -2.60587,2.58838 -7.15303,2.58838 z m 0.13992,-14.5509 q -1.95878,0 -3.0431,1.34665 -1.08432,1.34666 -1.08432,3.81262 0,5.15927 4.16239,5.15927 3.97002,0 3.97002,-5.29918 0,-5.01936 -4.00499,-5.01936 z m 29.31172,6.73329 h -11.68269 q 0.27982,3.90006 4.91442,3.90006 2.95565,0 5.19425,-1.39913 v 3.98751 q -2.48344,1.32917 -6.45346,1.32917 -4.33729,0 -6.73329,-2.39601 -2.396,-2.41349 -2.396,-6.7158 0,-4.45971 2.58838,-7.06558 2.58838,-2.60587 6.36602,-2.60587 3.91755,0 6.05122,2.32605 2.15115,2.32604 2.15115,6.31355 z m -5.1243,-3.39288 q 0,-3.8476 -3.11305,-3.8476 -1.32917,0 -2.30855,1.10181 -0.9619,1.10182 -1.17177,2.74579 z m 25.93627,10.77326 h -5.52654 v -2.46596 h -0.07 q -1.88882,2.90319 -5.54403,2.90319 -3.3579,0 -5.40412,-2.36103 -2.04622,-2.37851 -2.04622,-6.62835 0,-4.44222 2.25609,-7.11805 2.25609,-2.67583 5.9113,-2.67583 3.46284,0 4.82698,2.48345 h 0.07 v -10.65084 h 5.52654 z m -5.42161,-8.70955 v -1.34666 q 0,-1.74891 -1.01436,-2.90319 -1.01437,-1.15427 -2.64085,-1.15427 -1.83635,0 -2.86821,1.45159 -1.03185,1.4341 -1.03185,3.95253 0,2.36102 0.99687,3.63772 0.99688,1.2767 2.76328,1.2767 1.67895,0 2.72829,-1.34665 1.06683,-1.34666 1.06683,-3.56777 z m 26.16366,1.32917 h -11.6827 q 0.27983,3.90006 4.91443,3.90006 2.95565,0 5.19425,-1.39913 v 3.98751 q -2.48345,1.32917 -6.45346,1.32917 -4.33729,0 -6.73329,-2.39601 -2.396,-2.41349 -2.396,-6.7158 0,-4.45971 2.58838,-7.06558 2.58838,-2.60587 6.36602,-2.60587 3.91755,0 6.05121,2.32605 2.15116,2.32604 2.15116,6.31355 z m -5.1243,-3.39288 q 0,-3.8476 -3.11305,-3.8476 -1.32917,0 -2.30856,1.10181 -0.9619,1.10182 -1.17177,2.74579 z m 36.84944,10.77326 h -5.50905 v -10.21361 q 0,-3.90006 -2.86821,-3.90006 -1.36414,0 -2.22111,1.17176 -0.85696,1.17177 -0.85696,2.92068 v 10.02123 h -5.52655 v -10.31855 q 0,-3.79512 -2.81574,-3.79512 -1.41661,0 -2.27357,1.1193 -0.83948,1.1193 -0.83948,3.04309 v 9.95128 h -5.52654 v -17.9088 h 5.52654 v 2.79825 h 0.07 q 0.85696,-1.4341 2.396,-2.32605 1.55653,-0.90943 3.39288,-0.90943 3.79512,0 5.19425,3.34041 2.04622,-3.34041 6.01624,-3.34041 5.84134,0 5.84134,7.2055 z m 19.27292,0 h -5.22923 v -2.57089 h -0.07 q -1.80137,3.00812 -5.33416,3.00812 -2.60587,0 -4.10993,-1.46908 -1.48657,-1.48658 -1.48657,-3.95253 0,-5.21174 6.17364,-6.01624 l 4.86196,-0.6471 q 0,-2.93816 -3.18301,-2.93816 -3.2005,0 -6.0862,1.90631 v -4.1624 q 1.15428,-0.59463 3.14803,-1.04934 2.01125,-0.45472 3.65522,-0.45472 7.66021,0 7.66021,7.64272 z m -5.19425,-7.27545 v -1.20675 l -3.25297,0.41974 q -2.69332,0.34978 -2.69332,2.43098 0,0.94441 0.6471,1.55653 0.66458,0.59463 1.78388,0.59463 1.55653,0 2.53592,-1.06684 0.97939,-1.08432 0.97939,-2.72829 z"
       id="path3" />
    <path
       d="m 901.92611,159.3004 v -25.07932 h 9.12929 q 4.19738,0 6.45347,1.53904 2.25609,1.53904 2.25609,4.33729 0,2.02873 -1.38164,3.55028 -1.36415,1.52155 -3.49781,2.11618 v 0.07 q 2.67583,0.33229 4.26733,1.97627 1.60899,1.64397 1.60899,4.00499 0,3.44535 -2.46595,5.47408 -2.46596,2.01124 -6.73329,2.01124 z m 5.64897,-20.91692 v 5.94628 h 2.48345 q 1.7489,0 2.74578,-0.83947 1.01437,-0.85697 1.01437,-2.34354 0,-2.76327 -4.12742,-2.76327 z m 0,10.14366 v 6.61086 h 3.06059 q 1.95877,0 3.06058,-0.90943 1.1193,-0.90943 1.1193,-2.48345 0,-1.50405 -1.10181,-2.36102 -1.08432,-0.85696 -3.0431,-0.85696 z m 32.86194,3.39288 h -11.68269 q 0.27983,3.90006 4.91443,3.90006 2.95565,0 5.19425,-1.39913 v 3.98751 q -2.48345,1.32917 -6.45346,1.32917 -4.33729,0 -6.73329,-2.39601 -2.39601,-2.41349 -2.39601,-6.7158 0,-4.45971 2.58839,-7.06558 2.58838,-2.60587 6.36601,-2.60587 3.91755,0 6.05122,2.32605 2.15115,2.32604 2.15115,6.31355 z m -5.12429,-3.39288 q 0,-3.8476 -3.11305,-3.8476 -1.32917,0 -2.30856,1.10181 -0.9619,1.10182 -1.17177,2.74579 z m 39.28045,-0.0874 q 0,11.29794 -10.52842,11.29794 -10.21361,0 -10.21361,-11.0356 v -14.48095 h 5.66646 v 14.5509 q 0,6.0862 4.75702,6.0862 4.66958,0 4.66958,-5.87633 v -14.76077 h 5.64897 z m 22.21111,10.86071 h -5.50905 v -9.95128 q 0,-4.16239 -2.97314,-4.16239 -1.43411,0 -2.36103,1.10181 -0.92692,1.10181 -0.92692,2.79825 v 10.21361 h -5.52654 v -17.9088 h 5.52654 v 2.83323 h 0.07 q 1.97626,-3.27046 5.7539,-3.27046 5.94628,0 5.94628,7.38039 z m 21.89631,0 h -5.5265 v -2.46596 h -0.07 q -1.8888,2.90319 -5.544,2.90319 -3.3579,0 -5.4042,-2.36103 -2.0462,-2.37851 -2.0462,-6.62835 0,-4.44222 2.2561,-7.11805 2.2561,-2.67583 5.9113,-2.67583 3.4628,0 4.827,2.48345 h 0.07 v -10.65084 h 5.5265 z m -5.4216,-8.70955 v -1.34666 q 0,-1.74891 -1.0144,-2.90319 -1.0143,-1.15427 -2.6408,-1.15427 -1.8364,0 -2.8682,1.45159 -1.0319,1.4341 -1.0319,3.95253 0,2.36102 0.9969,3.63772 0.9969,1.2767 2.7633,1.2767 1.6789,0 2.7283,-1.34665 1.0668,-1.34666 1.0668,-3.56777 z m 26.1636,1.32917 h -11.6827 q 0.2798,3.90006 4.9144,3.90006 2.9557,0 5.1943,-1.39913 v 3.98751 q -2.4835,1.32917 -6.4535,1.32917 -4.3373,0 -6.7333,-2.39601 -2.396,-2.41349 -2.396,-6.7158 0,-4.45971 2.5884,-7.06558 2.5884,-2.60587 6.366,-2.60587 3.9176,0 6.0512,2.32605 2.1512,2.32604 2.1512,6.31355 z m -5.1243,-3.39288 q 0,-3.8476 -3.1131,-3.8476 -1.3291,0 -2.3085,1.10181 -0.9619,1.10182 -1.1718,2.74579 z m 20.095,-2.15116 q -0.9969,-0.54216 -2.3261,-0.54216 -1.8014,0 -2.8157,1.32917 -1.0144,1.31168 -1.0144,3.58526 v 8.55215 h -5.5265 v -17.9088 h 5.5265 v 3.32292 h 0.07 q 1.3117,-3.63772 4.722,-3.63772 0.8745,0 1.3642,0.20987 z m 1.6089,12.45222 v -4.4772 q 1.3642,0.82198 2.7108,1.22423 1.3642,0.40225 2.5709,0.40225 1.4691,0 2.3086,-0.40225 0.857,-0.40225 0.857,-1.22423 0,-0.52468 -0.3848,-0.87446 -0.3848,-0.34978 -0.9969,-0.61212 -0.5946,-0.26233 -1.3117,-0.4722 -0.717,-0.20987 -1.3816,-0.4722 -1.0668,-0.40225 -1.8888,-0.85697 -0.8045,-0.4722 -1.3642,-1.08432 -0.5421,-0.61212 -0.8394,-1.41661 -0.2799,-0.8045 -0.2799,-1.90631 0,-1.50406 0.6471,-2.58838 0.6646,-1.08433 1.7489,-1.7664 1.1019,-0.69956 2.501,-1.01436 1.4166,-0.3323 2.9381,-0.3323 1.1893,0 2.4135,0.19238 1.2243,0.17489 2.4135,0.52467 v 4.26734 q -1.0493,-0.61212 -2.2561,-0.90944 -1.1892,-0.3148 -2.3435,-0.3148 -0.5422,0 -1.0319,0.10494 -0.4722,0.0874 -0.8394,0.27982 -0.3673,0.17489 -0.5772,0.47221 -0.2098,0.27982 -0.2098,0.64709 0,0.48969 0.3148,0.83948 0.3148,0.34978 0.822,0.61211 0.5071,0.24485 1.1193,0.45472 0.6296,0.19238 1.2417,0.40225 1.1018,0.38476 1.9937,0.83947 0.892,0.45472 1.5216,1.06684 0.6471,0.61211 0.9794,1.4341 0.3497,0.82198 0.3497,1.95877 0,1.59151 -0.6995,2.7283 -0.6821,1.1193 -1.8364,1.83635 -1.1368,0.69956 -2.6408,1.01436 -1.4866,0.3323 -3.0956,0.3323 -2.9556,0 -5.4741,-0.90943 z m 27.7552,0.26233 q -1.2243,0.6471 -3.6902,0.6471 -5.8414,0 -5.8414,-6.06871 v -8.20237 h -2.9032 v -4.07495 h 2.9032 v -3.86508 l 5.5091,-1.57402 v 5.4391 h 4.0225 v 4.07495 h -4.0225 v 7.24047 q 0,2.79825 2.2211,2.79825 0.8744,0 1.8014,-0.50718 z m 11.5078,0.6471 q -4.4772,0 -7.0481,-2.50094 -2.5534,-2.51842 -2.5534,-6.82073 0,-4.44223 2.6583,-6.94316 2.6584,-2.51843 7.188,-2.51843 4.4597,0 6.9957,2.51843 2.5359,2.50093 2.5359,6.62835 0,4.45971 -2.6234,7.0481 -2.6059,2.58838 -7.153,2.58838 z m 0.1399,-14.5509 q -1.9588,0 -3.0431,1.34665 -1.0843,1.34666 -1.0843,3.81262 0,5.15927 4.1624,5.15927 3.97,0 3.97,-5.29918 0,-5.01936 -4.005,-5.01936 z m 21.7564,14.5509 q -4.4772,0 -7.0481,-2.50094 -2.5534,-2.51842 -2.5534,-6.82073 0,-4.44223 2.6583,-6.94316 2.6584,-2.51843 7.188,-2.51843 4.4598,0 6.9957,2.51843 2.5359,2.50093 2.5359,6.62835 0,4.45971 -2.6234,7.0481 -2.6059,2.58838 -7.153,2.58838 z m 0.1399,-14.5509 q -1.9588,0 -3.0431,1.34665 -1.0843,1.34666 -1.0843,3.81262 0,5.15927 4.1624,5.15927 3.97,0 3.97,-5.29918 0,-5.01936 -4.005,-5.01936 z m 30.7458,14.11367 h -5.5266 v -2.46596 h -0.07 q -1.8888,2.90319 -5.5441,2.90319 -3.3579,0 -5.4041,-2.36103 -2.0462,-2.37851 -2.0462,-6.62835 0,-4.44222 2.2561,-7.11805 2.2561,-2.67583 5.9113,-2.67583 3.4628,0 4.827,2.48345 h 0.07 v -10.65084 h 5.5266 z m -5.4216,-8.70955 v -1.34666 q 0,-1.74891 -1.0144,-2.90319 -1.0144,-1.15427 -2.6409,-1.15427 -1.8363,0 -2.8682,1.45159 -1.0318,1.4341 -1.0318,3.95253 0,2.36102 0.9969,3.63772 0.9968,1.2767 2.7632,1.2767 1.679,0 2.7283,-1.34665 1.0669,-1.34666 1.0669,-3.56777 z"
       id="path4" />
  </g>
  <g
     id="text127"
     style="font-stretch:condensed;font-size:145.335px;font-family:Impact;-inkscape-font-specification:'Impact, Condensed';fill:#0053b7;stroke:#0e0e0e;stroke-width:0;stroke-linejoin:round"
     transform="scale(1.1786214,0.84844888)"
     aria-label="LYMPHAWARE ID">
    <path
       style="font-size:136.25px;fill:#247a24"
       d="m 187.97324,25.180115 v 86.154175 h 17.03125 v 21.55518 H 159.96481 V 25.180115 Z m 74.64477,0 -20.42419,68.723755 v 38.9856 H 216.24777 V 93.90387 L 196.55539,25.180115 h 25.74646 q 6.05408,31.467895 6.78589,42.37854 2.32849,-17.230835 7.78381,-42.37854 z m 91.21033,0 V 132.88947 H 329.34592 V 60.174011 l -9.77967,72.715459 H 302.20236 L 291.89047,61.837219 V 132.88947 H 267.40805 V 25.180115 h 36.25794 q 1.59667,9.713135 3.39294,22.885742 l 3.85864,27.409668 6.38672,-50.29541 z m 11.24328,0 h 28.20801 q 11.44287,0 17.56348,1.796264 6.18713,1.796265 9.24744,5.189209 3.12683,3.392945 4.19128,8.249512 1.13098,4.790039 1.13098,14.902344 v 9.380493 q 0,10.31189 -2.1289,15.0354 -2.12891,4.723511 -7.85035,7.251587 -5.6549,2.528076 -14.83581,2.528076 h -7.5177 v 43.37647 h -28.00843 z m 28.00843,18.428344 v 27.409668 q 1.19751,0.06653 2.06238,0.06653 3.85864,0 5.32226,-1.862793 1.53015,-1.929321 1.53015,-7.91687 v -8.848267 q 0,-5.521851 -1.72973,-7.185059 -1.72974,-1.663208 -7.18506,-1.663208 z M 497.86215,25.180115 V 132.88947 H 469.85373 V 87.650208 h -8.38257 V 132.88947 H 433.46274 V 25.180115 h 28.00842 v 38.519897 h 8.38257 V 25.180115 Z"
       id="path5" />
    <path
       style="font-size:136.25px"
       d="m 557.47153,25.180115 16.03332,107.709355 h -28.6737 l -1.3971,-19.35975 h -10.04577 l -1.66321,19.35975 H 502.71872 L 516.95578,25.180115 Z m -14.83582,69.255981 q -2.1289,-18.295288 -4.25781,-45.172729 -4.25781,30.86914 -5.32227,45.172729 z M 681.2142,25.180115 668.77341,132.88947 h -34.9939 q -4.79004,-24.81507 -8.4491,-56.41602 -1.6632,13.505249 -7.78381,56.41602 H 582.75229 L 570.24496,25.180115 h 27.21009 l 2.86072,37.588501 2.92724,36.257934 q 1.53015,-28.141479 7.71729,-73.846435 h 29.1394 q 0.59876,4.72351 3.0603,35.526123 l 3.06031,40.914912 q 2.32849,-39.052119 7.78381,-76.441035 z m 52.6239,0 16.03333,107.709355 h -28.67371 l -1.39709,-19.35975 h -10.04578 l -1.66321,19.35975 H 679.0853 L 693.32236,25.180115 Z m -14.83581,69.255981 q -2.12891,-18.295288 -4.25781,-45.172729 -4.25782,30.86914 -5.32227,45.172729 z m 35.65918,-69.255981 h 19.82544 q 19.82544,0 26.81091,1.530151 7.052,1.530151 11.44287,7.850342 4.4574,6.253662 4.4574,20.025024 0,12.573853 -3.12683,16.898194 -3.12683,4.324341 -12.30774,5.189209 8.31604,2.062378 11.17676,5.52185 2.86071,3.459473 3.526,6.386719 0.73181,2.860718 0.73181,15.900266 v 28.4076 H 791.18552 V 97.097229 q 0,-8.648682 -1.3971,-10.71106 -1.33056,-2.062377 -7.11853,-2.062377 v 48.565678 h -28.00842 z m 28.00842,18.428344 v 23.950196 q 4.72351,0 6.58631,-1.264038 1.92932,-1.330567 1.92932,-8.449097 V 51.9245 q 0,-5.122681 -1.8628,-6.719361 -1.79626,-1.59668 -6.65283,-1.59668 z m 45.37232,-18.428344 h 46.70288 v 21.555176 h -18.69446 v 20.424194 h 17.49695 v 20.490723 h -17.49695 v 23.684082 h 20.55725 v 21.55518 h -48.56567 z"
       id="path6" />
    <path
       style="font-size:151.971px"
       d="M 929.47487,12.75224 V 132.88947 H 898.23474 V 12.75224 Z m 12.54057,0 h 23.37445 q 22.6324,0 30.57229,2.077728 8.01412,2.077729 12.16952,6.826822 4.1555,4.749094 5.1943,10.611256 1.0389,5.787958 1.0389,22.855013 v 42.074 q 0,16.176601 -1.5583,21.667741 -1.4841,5.41693 -5.2685,8.53353 -3.7844,3.04238 -9.34979,4.30386 -5.56534,1.18728 -16.77023,1.18728 h -39.40264 z m 31.24013,20.55467 v 79.02788 q 6.75262,0 8.31092,-2.67136 1.55829,-2.74557 1.55829,-14.766713 V 48.222032 q 0,-8.162504 -0.51943,-10.462846 -0.51943,-2.300343 -2.37455,-3.339207 -1.85511,-1.113069 -6.97523,-1.113069 z"
       id="path7" />
  </g>
</svg>