<svg xmlns="http://www.w3.org/2000/svg" viewBox="0 0 1200 180" preserveAspectRatio="none">
  <defs>
    <linearGradient id="blueMain" x1="0" y1="0" x2="1" y2="0">
      <stop offset="0" stop-color="#0b78b7"/>
      <stop offset="0.5" stop-color="#159bd0"/>
      <stop offset="1" stop-color="#0053b7"/>
    </linearGradient>
    <linearGradient id="blueLight" x1="0" y1="0" x2="1" y2="0">
      <stop offset="0" stop-color="#69c3e8"/>
      <stop offset="0.55" stop-color="#8fd4ef"/>
      <stop offset="1" stop-color="#2e9bd1"/>
    </linearGradient>
    <linearGradient id="green" x1="0" y1="0" x2="1" y2="0">
      <stop offset="0" stop-color="#5eb64b"/>
      <stop offset="0.55" stop-color="#2e9b3b"/>
      <stop offset="1" stop-color="#86c97c"/>
    </linearGradient>
  </defs>

  <!-- Broad blue ribbon -->
  <path d="M0 98
           C155 18 310 44 470 90
           C655 145 865 165 1045 116
           C1115 97 1160 76 1200 46
           C1160 90 1110 120 1040 141
           C850 197 625 177 445 124
           C285 78 140 49 0 98Z"
        fill="url(#blueMain)"/>

  <!-- Light blue ribbon -->
  <path d="M0 87
           C150 30 300 40 472 82
           C655 127 850 147 1038 107
           C1110 92 1162 71 1200 48
           C1158 82 1105 108 1034 125
           C845 170 640 151 458 106
           C300 67 150 51 0 87Z"
        fill="url(#blueLight)"/>

  <!-- Green upper ribbon -->
  <path d="M0 74
           C155 14 315 34 488 76
           C670 121 860 134 1045 91
           C1115 75 1163 58 1200 40
           C1162 66 1112 88 1042 105
           C855 151 652 137 474 94
           C300 52 150 39 0 74Z"
        fill="url(#green)"/>

  <!-- Fine pale blue highlight -->
  <path d="M0 68
           C155 18 312 28 484 67
           C670 110 860 122 1045 82
           C1116 67 1166 51 1200 35"
        fill="none" stroke="#a8def2" stroke-width="5" stroke-linecap="round"/>
</svg>