<?xml version="1.0" encoding="UTF-8"?>
<svg width="1200pt" height="1200pt" version="1.1" viewBox="0 0 1200 1200" xmlns="http://www.w3.org/2000/svg">
 <path d="m1064.4 667.45c-8.0625-21-12.844-43.688-14.297-67.078-3.9375-65.766-23.766-146.39-50.625-205.31-8.7656-19.312-13.781-39.469-15.234-60.141-3.1406-44.391-20.531-88.547-47.766-121.22-33-39.375-78.234-62.156-118.22-79.312-24-10.312-38.859-14.531-53.156-18.609-10.922-3.1406-22.219-6.2344-38.297-12.469-4.5469-1.7812-9.6094-1.5469-14.062 0.46875-4.4531 2.0625-7.7812 5.8594-9.4688 10.453-0.14062 0.23438-0.375 1.0781-1.2188 2.7656-20.859 50.531-66.609 68.391-102.84 68.391h-0.84375c-35.859-0.23438-81.234-18.609-101.3-69.141l-0.70312-1.9219c-1.5469-4.6875-4.9219-8.5312-9.375-10.547-4.4531-2.0625-9.6094-2.2969-14.156-0.46875-16.078 6.2344-27.375 9.375-38.297 12.469-14.297 4.0781-29.062 8.2969-53.156 18.609-39.844 17.156-85.078 39.938-118.08 79.312-27.375 32.625-44.766 76.781-47.766 121.22-1.3125 20.297-6.6094 40.547-15.375 60-26.766 59.062-46.547 139.55-50.625 205.31-1.3125 23.391-6.1406 45.938-14.156 67.078-21.844 58.078-33.844 133.31-33.844 364.69 0 9.9375 8.0625 18 18 18h108.38c8.1562 0 15.234-5.5312 17.391-13.312 45.375-170.39 49.688-195.61 53.766-260.53 0.46875-7.4531 0.60938-15.234 0.70312-23.062 0.46875-26.391 0.9375-51.375 14.062-67.688 15.844-19.922 30.609-47.531 41.859-76.453 5.8594 88.781-0.23438 188.63-6.2344 286.22-4.0781 65.859-7.9219 128.16-7.9219 184.92 0 9.9375 8.0625 18 18 18h408c27 0 53.625-4.5469 78.938-13.688 40.078-14.391 75.141-39.375 101.86-71.766 2.0625 7.6875 4.2188 15.703 6.4688 24.141 2.1562 7.9219 9.2344 13.312 17.391 13.312h108.38c9.9375 0 18-8.0625 18-18-0.09375-231.47-12.094-306.71-34.172-364.64zm-850.31 346.55h-76.453c0.14062-21.469 0.23438-41.391 0.60938-60h91.688c-4.6875 17.531-9.8438 37.312-15.844 60zm163.55 48c0.70312-50.859 4.0781-106.31 7.7812-164.63 7.3125-117.14 14.625-237.47 1.4531-340.69 24.234 17.297 51.609 26.625 79.078 26.625 1.6875 0 3.4688 0 5.1562-0.14063 9.9375-0.375 17.625-8.7656 17.297-18.703-0.46875-9.9375-9-17.766-18.703-17.297-26.859 1.0781-54-10.219-76.547-31.922-24.375-23.391-39.609-55.312-39.609-83.391 0-9.9375-8.0625-18-18-18s-18 8.0625-18 18c0 25.688 8.7656 52.688 24.234 76.781 1.7812 39.844-25.688 116.06-56.062 154.08-20.625 25.922-21.375 59.625-21.844 89.391-0.14062 7.3125-0.23438 14.531-0.70312 21.469-2.7656 45.609-5.625 69.938-24.141 144.14h-100.08c3.9375-154.55 16.547-201.61 30.375-237.84 9.375-24.609 15-50.766 16.547-77.766 3.7031-60.703 22.781-138.14 47.531-192.71 10.547-23.531 16.781-47.859 18.469-72.469 2.5312-36.938 16.922-73.688 39.375-100.55 28.219-33.609 68.766-54 104.62-69.469 21.938-9.4688 34.922-13.078 48.844-17.062 7.6875-2.1562 15.609-4.4531 25.219-7.6875 24.609 48.469 72.703 78.234 128.53 78.703 56.625 0.84375 106.45-29.531 131.76-78.703 9.6094 3.2344 17.531 5.5312 25.312 7.6875 13.781 3.9375 26.859 7.6875 48.703 17.062 36 15.469 76.688 35.859 104.77 69.375 22.453 26.859 36.844 63.609 39.469 100.55 1.6875 24.844 7.7812 49.219 18.375 72.469 24.844 54.469 43.922 131.86 47.531 192.61 1.6875 27.141 7.3125 53.297 16.688 77.766 13.781 36.141 26.391 83.297 30.375 237.84h-66.141c4.2188-17.625 6.4688-35.766 6.4688-54 0-64.453-26.859-125.86-73.453-169.78-3.1406-11.062-7.2188-20.766-12.609-29.391-20.766-33.844-51.609-103.69-57.469-156.94 15-23.859 23.531-50.391 23.531-75.703 0-9.9375-8.0625-18-18-18s-18 8.0625-18 18c0 27.938-15.141 60-39.609 83.391-22.547 21.703-49.688 32.859-76.547 31.922-9.9375-0.60938-18.375 7.3125-18.703 17.297-0.375 9.9375 7.3125 18.375 17.297 18.703 1.6875 0.14062 3.4688 0.14062 5.1562 0.14062 27.609 0 54.844-9.375 79.078-26.625-3 23.531-5.0625 48.938-6.1406 76.547-12.609-2.1562-25.547-3.375-38.531-3.375-129 0-234 105-234 234 0 83.391 44.062 156.61 109.92 198l-266.06-0.09375zm466.6-464.39c7.4531 20.062 15.703 39 23.766 55.219-8.5312-4.0781-17.297-7.5469-26.156-10.547 0.46875-15.75 1.3125-30.516 2.3906-44.672zm-9.9844 452.86c-21.375 7.6875-43.922 11.531-66.703 11.531-109.22 0-198-88.781-198-198s88.781-198 198-198c17.531 0 34.781 2.2969 51.375 6.8438 29.766 7.7812 57.844 23.062 81.141 44.156 41.625 37.312 65.531 90.938 65.531 147 0 34.078-8.7656 67.547-25.453 97.078-23.438 41.531-60.984 73.312-105.89 89.391zm151.69-36.469c-4.0781-15.234-7.6875-29.062-11.062-41.859 3.1406-5.8594 6-12 8.5312-18.141h78.375c0.23437 18.609 0.46875 38.531 0.60937 60zm-157.69-234.71c7.0781 7.0781 7.0781 18.469 0 25.453-3.4688 3.4688-8.1562 5.2969-12.703 5.2969s-9.2344-1.7812-12.703-5.2969l-17.297-17.297v196.55c0 9.9375-8.0625 18-18 18s-18-8.0625-18-18v-196.55l-17.297 17.297c-7.0781 7.0781-18.469 7.0781-25.453 0-7.0781-7.0781-7.0781-18.469 0-25.453l48-48c1.6875-1.6875 3.7031-3 5.8594-3.9375 0.14062 0 0.14062 0 0.23438-0.14062 2.0625-0.84375 4.2188-1.3125 6.6094-1.3125s4.5469 0.46875 6.6094 1.3125c0.14062 0 0.14062 0 0.23438 0.14062 2.2969 0.9375 4.2188 2.2969 5.8594 3.9375zm-144 72c7.0781 7.0781 7.0781 18.469 0 25.453-3.4688 3.4688-8.1562 5.2969-12.703 5.2969-2.0625 0-4.0781-0.46875-6-1.2188v55.172c0 9.9375-8.0625 18-18 18s-18-8.0625-18-18v-55.219c-6.375 2.2969-13.688 0.9375-18.703-4.0781-7.0781-7.0781-7.0781-18.469 0-25.453l24-24c1.6875-1.6875 3.7031-3 5.8594-3.9375 0.14062 0 0.14062 0 0.23438-0.14062 2.0625-0.84375 4.2188-1.3125 6.6094-1.3125s4.5469 0.46875 6.6094 1.3125c0.14062 0 0.14062 0 0.23438 0.14062 2.2969 0.9375 4.2188 2.2969 5.8594 3.9375zm240 0c7.0781 7.0781 7.0781 18.469 0 25.453-3.4688 3.4688-8.1562 5.2969-12.703 5.2969-2.0625 0-4.0781-0.46875-6-1.2188v55.172c0 9.9375-8.0625 18-18 18s-18-8.0625-18-18v-55.219c-6.375 2.2969-13.688 0.9375-18.703-4.0781-7.0781-7.0781-7.0781-18.469 0-25.453l24-24c1.6875-1.6875 3.7031-3 5.8594-3.9375 0.14062 0 0.14062 0 0.23438-0.14062 2.0625-0.84375 4.2188-1.3125 6.6094-1.3125s4.5469 0.46875 6.6094 1.3125c0.14062 0 0.14062 0 0.23438 0.14062 2.2969 0.9375 4.2188 2.2969 5.8594 3.9375z" fill="#0053b7"/>
</svg>
