<?xml version="1.0" encoding="UTF-8"?>
<svg width="1200pt" height="1200pt" version="1.1" viewBox="0 0 1200 1200" xmlns="http://www.w3.org/2000/svg">
 <path d="m619.78 184.82c11.391-22.359 23.672-44.766 37.219-67.172 3.375-5.625 10.453-8.3438 16.734-6.375 108.56 34.031 203.16 90.328 278.68 168.66 4.5 4.6406 5.25 11.953 1.9219 17.531-12.375 20.391-25.453 40.359-38.859 60.188-95.672-76.781-194.63-134.58-295.69-172.82z" fill="#0053b7"/>
 <path d="m501.56 947.63c-64.078-37.359-225.56-29.109-225.56-136.31 0-90.094 94.734-99.656 127.36-134.63 32.766 25.734 70.125 47.766 111.14 64.266 43.688 17.578 87.797 27.188 131.53 29.578 54.656 61.5 75.891 122.95 84.469 143.44l-133.64 107.72c-32.672-28.031-62.297-54.797-95.297-74.062z" fill="#0053b7"/>
 <path d="m888 1028.3c0 28.547-23.109 51.656-51.656 51.656h-141.66c-14.766 0-29.438-4.3125-41.391-12.984-4.8281-3.4688-8.9062-7.0781-13.5-10.594l134.02-108c24.938 12.375 55.453 23.344 78.703 30.891 21.234 6.8906 35.484 26.719 35.484 49.031z" fill="#0053b7"/>
 <path d="m870.66 592.55c10.734 10.312 11.109 27.422 0.75 38.156-54.891 57.234-127.03 86.859-205.26 86.859-42.609 0-87.047-8.7656-131.48-26.672-125.81-50.625-213.71-157.08-213.71-258.84h-43.5c-8.4844 0-13.641-9.3281-9.1406-16.547l70.5-112.83c4.2188-6.75 14.109-6.75 18.328 0l70.5 112.83c4.5 7.1719-0.65625 16.547-9.1406 16.547h-43.5c0 51.703 32.719 106.92 84.234 150.79 48.047-100.59 80.156-222.89 137.39-349.13 98.062 36.562 194.44 92.812 287.76 168.19-59.859 82.359-130.69 164.76-215.26 261.52 52.219-0.23438 111.61-16.219 163.31-70.125 10.312-10.781 27.328-11.156 38.203-0.79688z" fill="#0053b7"/>
 <path d="m357.14 122.68 70.5 112.83c4.5 7.1719-0.65625 16.547-9.1406 16.547h-141.05c-8.4844 0-13.641-9.3281-9.1406-16.547l70.5-112.83c4.2188-6.75 14.109-6.75 18.328 0z" fill="#0053b7"/>
</svg>
