<?xml version="1.0" encoding="UTF-8"?>
<svg width="1200pt" height="1200pt" version="1.1" viewBox="0 0 1200 1200" xmlns="http://www.w3.org/2000/svg">
 <path d="m715.3 50.371h-230.47v416.84h230.47zm-115.29 173.84c-39.199 0-71.09-31.883-71.09-71.078 0-39.191 31.891-71.078 71.09-71.078 39.195 0 71.078 31.883 71.078 71.078 0 39.191-31.883 71.078-71.078 71.078z" fill="#0053b7"/>
 <path d="m466.08 438.07h-30.402v79.863h328.64v-79.863h-30.273v38.52c0 5.1758-4.1992 9.375-9.375 9.375h-249.22c-5.1758 0-9.375-4.1992-9.375-9.375z" fill="#0053b7"/>
 <path d="m425.52 646.18c-27.332-16.613-58.824-25.395-91.082-25.395-96.824 0-175.6 78.77-175.6 175.6 0 54.27 24.613 104.57 66.617 137.76l0.003906-33.23c0-34.762 32.645-63.043 72.77-63.043h72.418c40.129 0 72.77 28.281 72.77 63.043v33.266c42.09-33.164 66.754-83.48 66.754-137.79 0.003907-61.875-31.645-118.02-84.652-150.21zm-91.078 178.45c-38.805 0-70.375-31.57-70.375-70.375 0-38.809 31.57-70.379 70.375-70.379 38.879 0 70.516 31.574 70.516 70.379-0.003907 38.805-31.633 70.375-70.516 70.375z" fill="#0053b7"/>
 <path d="m370.66 856.62h-72.418c-29.785 0-54.02 19.871-54.02 44.293v46.203c27.102 16.355 58.188 25 90.23 25 32.039 0 63.141-8.6289 90.23-24.941l-0.003907-46.258c-0.003906-24.426-24.238-44.297-54.02-44.297z" fill="#0053b7"/>
 <path d="m600.01 100.8c-28.859 0-52.34 23.477-52.34 52.328 0 28.855 23.48 52.328 52.34 52.328 28.855 0 52.328-23.477 52.328-52.328 0-28.855-23.477-52.328-52.328-52.328z" fill="#0053b7"/>
 <path d="m1101.1 347.61h-367.05v71.707h39.648c5.1758 0 9.375 4.1992 9.375 9.375v98.613c0 5.1758-4.1992 9.375-9.375 9.375h-347.39c-5.1758 0-9.375-4.1992-9.375-9.375v-98.613c0-5.1758 4.1992-9.375 9.375-9.375h39.781v-71.707h-367.05c-28.156 0-51.062 22.906-51.062 51.062v699.89c0 28.156 22.906 51.062 51.062 51.062h1002.1c28.078 0 50.926-22.906 50.926-51.062v-699.89c-0.003906-28.156-22.848-51.062-50.926-51.062zm-659.55 611c-1.3242 1.7773-3.2461 3.0781-5.4883 3.5703-30.41 18.754-65.484 28.676-101.62 28.676-36.605 0-72.105-10.199-102.8-29.473-1.3438-0.48828-2.5508-1.2539-3.5234-2.2617-55.145-36.09-88.023-96.77-88.023-162.75 0-107.16 87.184-194.35 194.35-194.35 35.691 0 70.555 9.7227 100.81 28.121 58.648 35.605 93.668 97.75 93.668 166.23 0.007813 65.707-32.613 126.12-87.375 162.23zm301.87 43.668h-47.902c-5.1758 0-9.375-4.1992-9.375-9.375 0-5.1758 4.1992-9.375 9.375-9.375h47.902c5.1758 0 9.375 4.1992 9.375 9.375 0 5.1797-4.1992 9.375-9.375 9.375zm261.75 0h-200.05c-5.1758 0-9.375-4.1992-9.375-9.375 0-5.1758 4.1992-9.375 9.375-9.375h200.05c5.1758 0 9.375 4.1992 9.375 9.375 0 5.1797-4.1992 9.375-9.375 9.375zm0-131.02h-309.66c-5.1758 0-9.375-4.1992-9.375-9.375s4.1992-9.375 9.375-9.375h309.65c5.1758 0 9.375 4.1992 9.375 9.375 0.003907 5.1797-4.1953 9.375-9.3711 9.375zm-319.03-140.25c0-5.1758 4.1992-9.375 9.375-9.375h161.17c5.1758 0 9.375 4.1992 9.375 9.375s-4.1992 9.375-9.375 9.375h-161.17c-5.1758 0-9.375-4.1953-9.375-9.375zm319.03 9.375h-79.312c-5.1758 0-9.375-4.1992-9.375-9.375s4.1992-9.375 9.375-9.375h79.312c5.1758 0 9.375 4.1992 9.375 9.375 0 5.1797-4.1992 9.375-9.375 9.375zm0-131.03h-309.66c-5.1758 0-9.375-4.1992-9.375-9.375 0-5.1758 4.1992-9.375 9.375-9.375h309.65c5.1758 0 9.375 4.1992 9.375 9.375 0.003907 5.1758-4.1953 9.375-9.3711 9.375z" fill="#0053b7"/>
 <path d="m334.45 702.63c-28.469 0-51.625 23.16-51.625 51.629s23.16 51.625 51.625 51.625c28.543 0 51.766-23.16 51.766-51.625-0.003907-28.465-23.223-51.629-51.766-51.629z" fill="#0053b7"/>
</svg>
