<?xml version="1.0" encoding="UTF-8"?>
<svg width="1200pt" height="1200pt" version="1.1" viewBox="0 0 1200 1200" xmlns="http://www.w3.org/2000/svg">
 <path d="m777.1 157.64-82.273-74.844v74.844zm28.895 674.5-188.17-108.64c-31.824-18.371-62.699-11.902-85.094 6.2891-16.633 13.5-28.285 33.758-31.656 54.898-4.5703 28.586 5.2305 58.656 36.949 76.969l113.8 65.699 74.242 113.09h-666.06v-980.45h598.61v115.75c0 9.9961 8.1016 18.109 18.109 18.109h129.12l0.15625 638.28zm-616.3-209.28v36.215h541.75v-36.215zm-55.008-0.011719c-9.9961 0-18.312 7.8711-18.312 18.121 0 10.246 8.3281 18.133 18.312 18.133s18.312-7.8711 18.312-18.133-8.3164-18.121-18.312-18.121zm55.008 133.46v36.215h264v-36.215zm-55.008-0.023438c-9.9961 0-18.312 7.8711-18.312 18.133s8.3047 18.133 18.312 18.133 18.312-7.8828 18.312-18.133c0-10.246-8.3164-18.133-18.312-18.133zm55.008 133.46v36.215h337.55v-36.215zm-55.008-0.023437c-9.9961 0-18.312 7.8711-18.312 18.133s8.3164 18.133 18.312 18.133 18.312-7.8711 18.312-18.133-8.3164-18.133-18.312-18.133zm140.79-715.27c-9.9961 0-18.109 8.1133-18.109 18.109v314.99c0 9.9961 8.1133 18.109 18.109 18.109h314.99c9.9961 0 18.098-8.1133 18.098-18.109v-314.99c0-9.9961-8.1016-18.109-18.098-18.109zm271.29 284.18v30.793h25.586v-278.76h-278.77v278.76h25.586v-30.793c0-20.352 8.3516-38.867 21.805-52.309 13.414-13.402 31.906-21.719 52.273-21.719h79.453c20.352 0 38.855 8.3164 52.273 21.719 13.453 13.441 21.805 31.957 21.805 52.309zm-36.215 30.793v-30.793c0-10.441-4.2344-19.883-11.051-26.699-6.8633-6.8516-16.344-11.102-26.797-11.102h-79.453c-10.465 0-19.945 4.2461-26.809 11.102-6.8164 6.8164-11.039 16.262-11.039 26.699v30.793zm-53.242-216.54c-6.2031-6.1914-14.82-10.031-24.336-10.031s-18.121 3.8398-24.324 10.031c-6.168 6.1562-9.9844 14.711-9.9844 24.203 0 9.4922 3.8164 18.059 9.9844 24.215 6.2031 6.1914 14.809 10.031 24.324 10.031s18.133-3.8281 24.336-10.031c6.1562-6.1562 9.9727-14.711 9.9727-24.215s-3.8164-18.059-9.9727-24.203zm-24.336-46.246c-19.43 0-37.031 7.8828-49.801 20.641-12.816 12.793-20.723 30.406-20.723 49.812 0 19.402 7.9062 37.031 20.723 49.824 12.77 12.742 30.371 20.641 49.801 20.641 19.43 0 37.031-7.8945 49.801-20.641 12.816-12.793 20.723-30.406 20.723-49.824 0-19.414-7.9219-37.031-20.723-49.812-12.77-12.758-30.371-20.641-49.801-20.641zm707.04 719.59-39.312-22.691c-14.832-8.5664-27.77-18.203-39.301-29.398-11.484-11.137-21.469-23.773-30.527-38.438-30.395-49.223-64.5-93.227-101.24-133.49-27.84-30.492-57.191-58.824-87.602-85.645l0.046875 216.39 36.684 21.18-18.109 31.273-260.91-150.64c-16.668-9.625-32.676-6.3477-44.219 3.0234-9.8398 7.9805-16.777 20.027-18.781 32.543-2.3633 14.809 2.7969 30.445 19.402 40.031l117.48 67.836c2.7734 1.6094 4.9688 3.8398 6.4922 6.4219l69.059 105.8c13.598 20.832 30.289 37.441 49.645 49.559 19.379 12.145 41.641 19.906 66.312 23.051 26.82 3.4062 55.586 5.4375 81.203 14.074 12.289 4.1406 24.059 9.5391 36 16.43l45.816 26.461 111.86-193.77z" fill="#2c922a" fill-rule="evenodd"/>
</svg>
