<?xml version="1.0" encoding="UTF-8"?>
<svg width="1200pt" height="1200pt" version="1.1" viewBox="0 0 1200 1200" xmlns="http://www.w3.org/2000/svg">
 <path d="m1179.8 986.48c-4.0312-9.5625-15-14.016-24.562-9.9844l-352.78 148.5h-419.68l-144.52-144.52c-13.359-13.359-13.359-35.109 0-48.469 6.4688-6.4688 15.094-10.031 24.234-10.031 9.0469 0 17.578 3.4688 24.047 9.8438l112.69 112.69c3.5156 3.5156 8.2969 5.4844 13.266 5.4844h243.74c10.359 0 18.75-8.3906 18.75-18.75s-8.3906-18.75-18.75-18.75h-131.26c-20.672 0-37.5-16.828-37.5-37.5s16.828-37.5 37.5-37.5h198.47l69.516 69.516c3.6562 3.6562 8.4375 5.4844 13.266 5.4844 3.8906 0 7.7812-1.2188 11.109-3.6562l356.26-262.5c8.3438-6.1406 10.125-17.859 3.9844-26.203s-17.859-10.125-26.203-3.9844l-145.13 106.92c-3.375-11.156-9.4219-21.516-18-30.094-13.547-13.547-31.594-21.047-50.766-21.047s-37.219 7.4531-50.766 21.047l-107.02 107.02h-39.844c6.4219-11.062 10.078-23.859 10.078-37.5 0-41.344-33.656-75-75-75h-206.26c-4.9688 0-9.75 1.9688-13.266 5.4844l-63.609 63.609-343.22-252.94c-8.3438-6.1406-20.062-4.3594-26.203 3.9844s-4.3594 20.062 3.9844 26.203l356.26 262.5c7.4531 5.4844 17.812 4.7344 24.375-1.8281l69.516-69.516h198.47c20.672 0 37.5 16.828 37.5 37.5s-16.828 37.5-37.5 37.5h-150c-41.344 0-75 33.656-75 75 0 13.641 3.6562 26.484 10.078 37.5h-39.797l-107.02-107.02c-13.547-13.547-31.594-21.047-50.766-21.047s-37.219 7.4531-50.766 21.047c-6.6562 6.6562-11.672 14.25-15.141 22.406l-151.78-63.938c-9.5625-4.0312-20.531 0.46875-24.562 9.9844-4.0312 9.5625 0.46875 20.531 9.9844 24.562l161.26 67.875c2.1094 14.859 8.8594 29.203 20.25 40.594l150 150c3.5156 3.5156 8.2969 5.4844 13.266 5.4844h431.26c2.4844 0 4.9688-0.51562 7.2656-1.4531l356.26-150c9.5625-3.9844 14.016-15 10.031-24.516zm-392.29-48.984c4.9688 0 9.75-1.9688 13.266-5.4844l112.69-112.69c6.4688-6.3281 14.953-9.8438 24.047-9.8438 9.1406 0 17.766 3.5625 24.234 10.031 7.7812 7.7812 11.25 18.609 9.6562 29.25l-163.31 120.32-31.547-31.594z" fill="#0053b7"/>
 <path d="m408.98 613.6c89.906 85.172 178.55 132.28 182.29 134.26 2.7188 1.4531 5.7188 2.1562 8.7188 2.1562s6-0.70312 8.7188-2.1562c3.75-1.9688 92.391-49.078 182.29-134.26 53.109-50.297 95.438-103.45 125.95-157.97 38.484-68.906 58.031-140.21 58.031-211.87 0-113.72-92.531-206.26-206.26-206.26-39.469 0-77.812 11.203-110.91 32.344-22.781 14.578-42.422 33.375-57.844 55.312-15.422-21.938-35.016-40.734-57.844-55.312-33.094-21.141-71.438-32.344-110.91-32.344-113.72 0-206.26 92.531-206.26 206.26 0 71.672 19.547 142.97 58.031 211.87 30.469 54.562 72.844 107.67 125.95 157.97zm22.266-538.6c65.203 0 123.37 36.469 151.87 95.156 3.1406 6.4688 9.7031 10.547 16.875 10.547s13.734-4.125 16.875-10.547c28.5-58.688 86.672-95.156 151.87-95.156 93.047 0 168.74 75.703 168.74 168.74 0 147.98-93.328 267.66-171.61 342-70.359 66.797-141.61 110.11-165.89 124.03-24.188-13.875-94.969-56.812-165.24-123.42-78.562-74.438-172.26-194.29-172.26-342.61 0-93.047 75.703-168.74 168.74-168.74z" fill="#0053b7"/>
 <path d="m487.5 450h56.25v56.25c0 10.359 8.3906 18.75 18.75 18.75h75c10.359 0 18.75-8.3906 18.75-18.75v-56.25h56.25c10.359 0 18.75-8.3906 18.75-18.75v-75c0-10.359-8.3906-18.75-18.75-18.75h-56.25v-56.25c0-10.359-8.3906-18.75-18.75-18.75h-75c-10.359 0-18.75 8.3906-18.75 18.75v56.25h-56.25c-10.359 0-18.75 8.3906-18.75 18.75v75c0 10.359 8.3906 18.75 18.75 18.75zm18.75-75h56.25c10.359 0 18.75-8.3906 18.75-18.75v-56.25h37.5v56.25c0 10.359 8.3906 18.75 18.75 18.75h56.25v37.5h-56.25c-10.359 0-18.75 8.3906-18.75 18.75v56.25h-37.5v-56.25c0-10.359-8.3906-18.75-18.75-18.75h-56.25z" fill="#0053b7"/>
</svg>
